<svg width="16" height="16" viewBox="0 0 16 16" fill="none" xmlns="http://www.w3.org/2000/svg">
<path d="M12.0845 15.1111C11.8881 15.1109 11.6962 15.0521 11.5334 14.9422L8.21781 12.72C8.20147 12.7087 8.1821 12.7027 8.16225 12.7027C8.1424 12.7027 8.12303 12.7087 8.10669 12.72L4.79114 14.9422C4.62465 15.0534 4.42828 15.1113 4.2281 15.1082C4.02793 15.1051 3.83343 15.0412 3.67043 14.925C3.50742 14.8088 3.38363 14.6457 3.31549 14.4575C3.24735 14.2692 3.23808 14.0647 3.28892 13.8711L4.37781 10.0311C4.38295 10.0118 4.38233 9.99139 4.37601 9.97243C4.36969 9.95347 4.35795 9.93678 4.34225 9.92442L1.20447 7.45776C1.03929 7.3347 0.91676 7.16303 0.854065 6.96683C0.79137 6.77062 0.791654 6.55971 0.854876 6.36367C0.918099 6.16763 1.04109 5.9963 1.2066 5.87369C1.37212 5.75108 1.57185 5.68334 1.77781 5.67998L5.77781 5.52887C5.79747 5.52751 5.81633 5.52049 5.8321 5.50866C5.84787 5.49684 5.85988 5.4807 5.86669 5.4622L7.24447 1.71553C7.31392 1.5256 7.44006 1.36159 7.6058 1.24571C7.77155 1.12983 7.9689 1.06769 8.17114 1.06769C8.37338 1.06769 8.57073 1.12983 8.73647 1.24571C8.90222 1.36159 9.02836 1.5256 9.09781 1.71553L10.4756 5.4622C10.4824 5.4807 10.4944 5.49684 10.5102 5.50866C10.526 5.52049 10.5448 5.52751 10.5645 5.52887L14.5645 5.67998C14.7704 5.68334 14.9702 5.75108 15.1357 5.87369C15.3012 5.9963 15.4242 6.16763 15.4874 6.36367C15.5506 6.55971 15.5509 6.77062 15.4882 6.96683C15.4255 7.16303 15.303 7.3347 15.1378 7.45776L12 9.92442C11.9838 9.93638 11.9717 9.95304 11.9654 9.97213C11.959 9.99122 11.9587 10.0118 11.9645 10.0311L13.0534 13.8711C13.0916 14.0184 13.0954 14.1725 13.0644 14.3215C13.0335 14.4705 12.9687 14.6103 12.875 14.7303C12.7813 14.8502 12.6613 14.9469 12.5242 15.0129C12.3871 15.079 12.2366 15.1126 12.0845 15.1111V15.1111ZM8.16447 11.8133C8.36129 11.8193 8.55175 11.8844 8.71114 12L12.0267 14.2222C12.0435 14.235 12.064 14.242 12.0851 14.2421C12.1062 14.2423 12.1268 14.2356 12.1438 14.2231C12.1608 14.2106 12.1733 14.193 12.1794 14.1728C12.1856 14.1526 12.185 14.1309 12.1778 14.1111L11.0889 10.2711C11.0353 10.0827 11.0393 9.88263 11.1003 9.69652C11.1612 9.51041 11.2765 9.34678 11.4311 9.22664L14.5689 6.75998C14.586 6.74796 14.5988 6.73076 14.6055 6.71092C14.6121 6.69108 14.6122 6.66964 14.6057 6.64974C14.5992 6.62985 14.5866 6.61255 14.5695 6.6004C14.5525 6.58824 14.5321 6.58186 14.5111 6.5822L10.5111 6.43109C10.3153 6.42345 10.1261 6.35766 9.96782 6.24209C9.80951 6.12652 9.6892 5.96642 9.62225 5.7822L8.24447 2.03553C8.23826 2.01564 8.22585 1.99825 8.20906 1.98591C8.19228 1.97356 8.17198 1.9669 8.15114 1.9669C8.1303 1.9669 8.11 1.97356 8.09321 1.98591C8.07642 1.99825 8.06402 2.01564 8.05781 2.03553L6.69336 5.77776C6.62641 5.96197 6.5061 6.12208 6.34779 6.23764C6.18948 6.35321 6.00033 6.41901 5.80447 6.42664L1.80447 6.57776C1.78356 6.57742 1.76309 6.5838 1.74606 6.59595C1.72904 6.60811 1.71637 6.62541 1.7099 6.6453C1.70344 6.66519 1.70352 6.68663 1.71015 6.70647C1.71677 6.72632 1.72958 6.74351 1.74669 6.75553L4.88892 9.22664C5.04311 9.34717 5.15798 9.51082 5.21892 9.6968C5.27986 9.88278 5.28411 10.0827 5.23114 10.2711L4.14669 14.1111C4.14022 14.1303 4.14019 14.1511 4.14661 14.1704C4.15302 14.1896 4.16554 14.2063 4.18225 14.2178C4.19835 14.2315 4.21884 14.2391 4.24003 14.2391C4.26121 14.2391 4.2817 14.2315 4.29781 14.2178L7.61336 11.9955C7.7754 11.888 7.96558 11.8308 8.16003 11.8311L8.16447 11.8133Z" fill="#6A737D"/>
</svg>
