<svg width="16" height="16" viewBox="0 0 16 16" fill="none" xmlns="http://www.w3.org/2000/svg">
<path d="M8.00002 13.3333C8.17683 13.3333 8.3464 13.2631 8.47142 13.1381C8.59645 13.013 8.66669 12.8435 8.66669 12.6667C8.66669 12.4899 8.59645 12.3203 8.47142 12.1953C8.3464 12.0702 8.17683 12 8.00002 12C7.82321 12 7.65364 12.0702 7.52862 12.1953C7.40359 12.3203 7.33335 12.4899 7.33335 12.6667C7.33335 12.8435 7.40359 13.013 7.52862 13.1381C7.65364 13.2631 7.82321 13.3333 8.00002 13.3333V13.3333ZM8.68869 10.7887C9.13078 10.951 9.50142 11.2641 9.73537 11.6729C9.96931 12.0816 10.0516 12.5598 9.96762 13.0232C9.88369 13.4867 9.63895 13.9056 9.27651 14.2064C8.91406 14.5071 8.45715 14.6703 7.98619 14.6673C7.51524 14.6643 7.06044 14.4952 6.70187 14.1899C6.3433 13.8846 6.10395 13.4625 6.02595 12.998C5.94795 12.5336 6.0363 12.0565 6.27545 11.6508C6.5146 11.245 6.88922 10.9367 7.33335 10.78V10.082C7.33335 10.0327 7.33535 9.98333 7.33869 9.93466C7.31874 9.84673 7.28115 9.76375 7.22821 9.69076C7.17527 9.61777 7.10808 9.55627 7.03069 9.51L4.97335 8.28C4.67652 8.10244 4.43081 7.85095 4.26022 7.55007C4.08962 7.24919 3.99997 6.90921 4.00002 6.56333V5.21933C3.55502 5.06206 3.17996 4.75253 2.94111 4.34546C2.70227 3.93839 2.61503 3.45998 2.69481 2.9948C2.7746 2.52963 3.01627 2.10763 3.37711 1.80341C3.73794 1.49919 4.19472 1.33234 4.66669 1.33234C5.13866 1.33234 5.59543 1.49919 5.95627 1.80341C6.31711 2.10763 6.55878 2.52963 6.63856 2.9948C6.71834 3.45998 6.6311 3.93839 6.39226 4.34546C6.15342 4.75253 5.77835 5.06206 5.33335 5.21933V6.56333C5.3334 6.67861 5.36333 6.7919 5.42024 6.89215C5.47714 6.99241 5.55907 7.07619 5.65802 7.13533L7.71535 8.36599C7.82019 8.42882 7.91905 8.50112 8.01069 8.582C8.10254 8.50109 8.20162 8.42879 8.30669 8.36599L10.364 7.13533C10.463 7.07619 10.5449 6.99241 10.6018 6.89215C10.6587 6.7919 10.6886 6.67861 10.6887 6.56333V5.22733C10.2405 5.07427 9.86105 4.76716 9.618 4.36062C9.37495 3.95409 9.28402 3.47451 9.36138 3.00722C9.43874 2.53994 9.67938 2.11525 10.0405 1.80874C10.4016 1.50222 10.8597 1.33376 11.3334 1.33333C11.8033 1.33313 12.2583 1.49842 12.6185 1.80019C12.9787 2.10196 13.2212 2.52094 13.3034 2.98363C13.3855 3.44632 13.3022 3.92317 13.0679 4.33052C12.8335 4.73787 12.4633 5.04971 12.022 5.21133V6.56333C12.0221 6.90921 11.9324 7.24919 11.7618 7.55007C11.5912 7.85095 11.3455 8.10244 11.0487 8.28L8.99135 9.51066C8.91396 9.55694 8.84677 9.61843 8.79383 9.69143C8.74089 9.76442 8.7033 9.84739 8.68335 9.93533C8.68669 9.984 8.68869 10.0333 8.68869 10.082V10.7887V10.7887ZM4.66669 3.99999C4.8435 3.99999 5.01307 3.92976 5.13809 3.80473C5.26312 3.67971 5.33335 3.51014 5.33335 3.33333C5.33335 3.15652 5.26312 2.98695 5.13809 2.86192C5.01307 2.7369 4.8435 2.66666 4.66669 2.66666C4.48988 2.66666 4.32031 2.7369 4.19528 2.86192C4.07026 2.98695 4.00002 3.15652 4.00002 3.33333C4.00002 3.51014 4.07026 3.67971 4.19528 3.80473C4.32031 3.92976 4.48988 3.99999 4.66669 3.99999ZM11.3334 3.99999C11.5102 3.99999 11.6797 3.92976 11.8048 3.80473C11.9298 3.67971 12 3.51014 12 3.33333C12 3.15652 11.9298 2.98695 11.8048 2.86192C11.6797 2.7369 11.5102 2.66666 11.3334 2.66666C11.1565 2.66666 10.987 2.7369 10.8619 2.86192C10.7369 2.98695 10.6667 3.15652 10.6667 3.33333C10.6667 3.51014 10.7369 3.67971 10.8619 3.80473C10.987 3.92976 11.1565 3.99999 11.3334 3.99999Z" fill="#6A737D"/>
</svg>
