<svg width="16" height="16" viewBox="0 0 16 16" fill="none" xmlns="http://www.w3.org/2000/svg">
<path d="M5 6.75C5 6.60166 5.04399 6.45666 5.1264 6.33332C5.20881 6.20999 5.32595 6.11386 5.46299 6.05709C5.60003 6.00032 5.75084 5.98547 5.89632 6.01441C6.04181 6.04335 6.17544 6.11478 6.28033 6.21967C6.38522 6.32456 6.45665 6.4582 6.48559 6.60368C6.51453 6.74917 6.49968 6.89997 6.44291 7.03701C6.38615 7.17406 6.29002 7.29119 6.16668 7.3736C6.04334 7.45601 5.89834 7.5 5.75 7.5C5.55109 7.5 5.36032 7.42098 5.21967 7.28033C5.07902 7.13968 5 6.94891 5 6.75ZM10.25 7.5C10.3983 7.5 10.5433 7.45601 10.6667 7.3736C10.79 7.29119 10.8861 7.17406 10.9429 7.03701C10.9997 6.89997 11.0145 6.74917 10.9856 6.60368C10.9567 6.4582 10.8852 6.32456 10.7803 6.21967C10.6754 6.11478 10.5418 6.04335 10.3963 6.01441C10.2508 5.98547 10.1 6.00032 9.96299 6.05709C9.82595 6.11386 9.70881 6.20999 9.6264 6.33332C9.54399 6.45666 9.5 6.60166 9.5 6.75C9.5 6.94891 9.57902 7.13968 9.71967 7.28033C9.86033 7.42098 10.0511 7.5 10.25 7.5ZM14.5 8C14.5 9.28558 14.1188 10.5423 13.4046 11.6112C12.6903 12.6801 11.6752 13.5132 10.4874 14.0052C9.29973 14.4972 7.99279 14.6259 6.73192 14.3751C5.47104 14.1243 4.31285 13.5052 3.40381 12.5962C2.49477 11.6872 1.8757 10.529 1.6249 9.26809C1.37409 8.00721 1.50282 6.70028 1.99479 5.51256C2.48676 4.32484 3.31988 3.30968 4.3888 2.59545C5.45772 1.88122 6.71442 1.5 8 1.5C9.72331 1.50195 11.3755 2.1874 12.594 3.40596C13.8126 4.62453 14.4981 6.27669 14.5 8ZM13.5 8C13.5 6.9122 13.1774 5.84883 12.5731 4.94436C11.9687 4.03989 11.1098 3.33494 10.1048 2.91866C9.09977 2.50238 7.9939 2.39346 6.92701 2.60568C5.86011 2.8179 4.8801 3.34172 4.11092 4.11091C3.34173 4.8801 2.8179 5.86011 2.60568 6.927C2.39347 7.9939 2.50238 9.09977 2.91867 10.1048C3.33495 11.1098 4.0399 11.9687 4.94437 12.5731C5.84884 13.1774 6.91221 13.5 8 13.5C9.45819 13.4983 10.8562 12.9184 11.8873 11.8873C12.9184 10.8562 13.4983 9.45818 13.5 8V8ZM10.849 9.06694C10.7342 9.00056 10.5978 8.98249 10.4696 9.01671C10.3415 9.05094 10.2323 9.13465 10.1659 9.24944C9.89302 9.72082 9.47434 10.0908 8.97294 10.3035C8.51468 10.4973 8.00897 10.5499 7.52065 10.4544C7.03233 10.3589 6.58366 10.1197 6.23219 9.7675C6.07754 9.61287 5.94375 9.43871 5.83419 9.24944C5.76779 9.13465 5.6585 9.05094 5.53038 9.01673C5.40226 8.98251 5.26579 9.0006 5.151 9.067C5.03621 9.1334 4.95251 9.24269 4.91829 9.37081C4.88408 9.49893 4.90216 9.6354 4.96857 9.75019C5.27607 10.282 5.71805 10.7235 6.25015 11.0305C6.78225 11.3374 7.38573 11.499 8.00002 11.499C8.61431 11.499 9.21779 11.3374 9.74988 11.0304C10.282 10.7235 10.7239 10.2819 11.0314 9.75012C11.0978 9.63534 11.1159 9.49889 11.0817 9.37078C11.0475 9.24267 10.9638 9.1334 10.849 9.067V9.06694Z" fill="#616161"/>
</svg>
